# xmcd
#
# Track frame offsets:
# 150
# 13376
# 25804
# 36592
# 56185
# 69463
#
# Disc length: 1103 seconds
#
# Revision: 0
# Processed by: cddbd v1.5.2PL0 Copyright (c) Steve Scherf et al.
# Submitted via: Audion 3.0.2 (http://www.panic.com/audion/)
#
DISCID=55044d06
DTITLE=Clayfeet stompers - Western Swing
DYEAR=1900
DGENRE=
TTITLE0=Clayfeet stompers 1
TTITLE1=Clayfeet stompers 2
TTITLE2=Clayfeet stompers 3
TTITLE3=Clayfeet stompers 4
TTITLE4=Clayfeet stompers 5
TTITLE5=Clayfeet stompers 6
EXTD=
EXTT0=
EXTT1=
EXTT2=
EXTT3=
EXTT4=
EXTT5=
PLAYORDER=
